# xmcd
#
# Track frame offsets:
#	150
#	3093
#	5851
#	26204
#	37306
#	42691
#	61620
#	76412
#	84004
#	103337
#	122112
#	125502
#	139931
#	151812
#
# Disc length: 2071 seconds
#
# Revision: 1
# Processed by: cddbd v1.5.2PL0 Copyright (c) Steve Scherf et al.
# Submitted via: audiograbber 1.83.01
#
DISCID=b708150e
DTITLE=Various Artist - McCoury Music Sampler
DYEAR=1900
DGENRE=Country
TTITLE0=Del McCoury - Del McCoury intro
TTITLE1=Del McCoury - Del McCoury intro commentary
TTITLE2=Little Mo' McCoury - Man Gave Names to all the Animals
TTITLE3=Little Mo' McCoury - Barefoot Nellie
TTITLE4=Del McCoury - Del McCoury commentary
TTITLE5=Larry Sparks - The last suit you wear
TTITLE6=Larry Sparks - Those blue eyes don't sparkle anymore
TTITLE7=Del McCoury - Del McCoury commentary
TTITLE8=Merle Haggard - Jimmie Rodgers Blues medley
TTITLE9=Merle Haggard - Mama's Prayers
TTITLE10=Del McCoury - Del McCoury commentary
TTITLE11=The Del McCoury Band - Nothin' Special
TTITLE12=The Del McCoury Band - Bound for the land of Canaan
TTITLE13=Del McCoury - Del McCoury commentary
EXTD=
EXTT0=
EXTT1=
EXTT2=
EXTT3=
EXTT4=
EXTT5=
EXTT6=
EXTT7=
EXTT8=
EXTT9=
EXTT10=
EXTT11=
EXTT12=
EXTT13=
PLAYORDER=
